<?xml version="1.0" standalone="no"?>
<!DOCTYPE svg PUBLIC "-//W3C//DTD SVG 20010904//EN"
 "http://www.w3.org/TR/2001/REC-SVG-20010904/DTD/svg10.dtd">
<svg version="1.0" xmlns="http://www.w3.org/2000/svg"
 width="700.000000pt" height="700.000000pt" viewBox="0 0 700.000000 700.000000"
 preserveAspectRatio="xMidYMid meet">
<metadata>
Created by potrace 1.14, written by Peter Selinger 2001-2017
</metadata>
<g transform="translate(0.000000,700.000000) scale(0.100000,-0.100000)"
fill="#000000" stroke="none">
<path d="M3250 6598 c-129 -216 -242 -404 -251 -418 -15 -22 -231 -384 -284
-474 -94 -161 -291 -485 -295 -486 -3 0 -208 152 -456 338 -248 185 -464 346
-479 357 -15 11 -46 35 -68 52 l-42 33 -5 -413 -5 -412 -517 0 c-284 0 -515
-2 -514 -5 2 -3 97 -158 211 -344 114 -187 215 -352 224 -367 27 -47 202 -332
226 -369 12 -19 48 -78 80 -130 31 -52 67 -111 80 -130 63 -99 215 -352 215
-359 0 -4 -66 -118 -146 -252 -81 -134 -154 -256 -163 -271 -9 -15 -51 -87
-95 -160 -43 -73 -86 -144 -94 -158 -19 -29 -142 -233 -142 -235 0 0 -51 -86
-114 -190 -63 -105 -195 -324 -293 -488 -98 -163 -210 -351 -250 -417 -39 -66
-66 -120 -60 -121 7 0 632 0 1389 -1 l1378 0 22 -36 c13 -20 28 -44 33 -54 28
-47 102 -169 130 -213 31 -48 286 -464 447 -730 43 -72 82 -131 86 -133 8 -2
-7 -26 200 313 91 149 211 344 266 435 56 90 103 168 105 173 2 5 36 61 76
125 l72 117 1364 2 c750 1 1376 2 1391 2 29 1 83 -91 -731 1259 -47 78 -93
153 -101 167 -8 14 -129 215 -269 447 l-254 421 18 31 c20 33 223 369 335 551
37 61 163 268 280 460 117 193 250 411 295 485 45 74 87 144 93 155 10 20 8
20 -519 20 -350 0 -530 3 -532 10 -1 5 -2 191 -2 413 0 221 0 402 0 402 -1 0
-152 -112 -336 -250 -184 -137 -343 -256 -354 -264 -11 -8 -87 -65 -170 -127
-82 -62 -156 -112 -163 -113 -12 -1 -163 246 -868 1417 -109 180 -200 327
-203 327 -4 0 -112 -177 -241 -392z m669 -896 c14 -24 31 -51 36 -60 6 -10 23
-40 40 -67 16 -28 34 -58 40 -67 5 -9 52 -86 103 -171 50 -84 92 -155 92 -158
0 -3 -1428 -4 -1469 0 -10 1 -10 5 -3 14 19 22 142 229 142 238 0 5 5 9 10 9
6 0 10 4 10 9 0 9 91 166 145 251 39 61 400 664 404 675 16 42 29 24 224 -298
110 -182 212 -351 226 -375z m-2069 -248 c162 -121 310 -230 328 -242 17 -13
32 -27 32 -30 0 -6 -654 -9 -682 -3 -4 0 -6 118 -6 261 0 240 2 260 17 247 9
-8 149 -113 311 -233z m3584 -11 c-1 -142 -2 -260 -3 -263 -1 -3 -156 -5 -345
-5 -190 -1 -343 2 -340 6 2 4 90 72 196 151 167 124 493 368 493 368 0 0 -1
-116 -1 -257z m-3779 -2430 c54 -87 105 -171 115 -188 10 -16 108 -177 219
-358 110 -180 201 -331 201 -336 0 -5 -6 -11 -12 -14 -7 -3 -155 -111 -328
-241 -173 -130 -318 -236 -322 -236 -3 0 -6 330 -7 733 0 700 4 797 29 797 5
0 52 -71 105 -157z m3779 -618 c1 -415 -2 -755 -6 -755 -9 0 -638 468 -638
475 0 2 67 113 149 247 393 645 452 741 467 770 8 16 18 27 22 24 3 -4 6 -346
6 -761z m187 483 c18 -29 38 -62 44 -73 13 -22 344 -570 559 -925 75 -124 139
-233 143 -242 3 -10 9 -18 14 -18 5 0 9 -5 9 -10 0 -6 16 -36 35 -66 19 -30
35 -57 35 -59 0 -3 -197 -4 -437 -3 l-438 3 0 722 c0 398 1 723 2 723 1 0 16
-24 34 -52z m-4251 -708 l0 -690 -415 0 c-228 0 -415 2 -415 4 0 2 167 282
371 623 204 340 389 648 410 686 22 37 42 67 44 67 3 0 5 -310 5 -690z m1063
-427 c86 -141 156 -258 154 -260 -2 -2 -230 -2 -506 -1 l-502 3 343 257 c189
141 345 257 348 257 3 1 76 -114 163 -256z m2381 161 c56 -41 144 -107 196
-145 52 -39 109 -81 125 -94 17 -13 79 -59 140 -104 l109 -81 -487 0 c-268 0
-487 3 -487 6 0 4 55 97 123 208 148 244 143 236 158 264 7 12 15 22 17 22 3
0 51 -34 106 -76z"/>
</g>
</svg>
